<svg width="256" height="256"
   xmlns="http://www.w3.org/2000/svg">
   <g id="Sharpmake" transform="translate(-362.5464,-406.21469)">
      <path id="path_cog" style="color:#000000;clip-rule:nonzero;display:inline;overflow:visible;visibility:visible;color-interpolation:sRGB;color-interpolation-filters:linearRGB;fill:#16acc2;fill-opacity:1;stroke:none;stroke-width:3;marker:none;color-rendering:auto;image-rendering:auto;shape-rendering:auto;text-rendering:auto;enable-background:accumulate" d="m 516.54505,406.21469 c -16.9771,0 -2.706,22.35016 -35.2882,25.29631 -38.6161,3.49221 -17.3767,-31.66056 -51.7169,-13.65639 -34.3401,18.00475 6.6542,20.53172 -18.1824,50.30742 -24.836,29.77512 -34.6793,-10.1037 -46.2308,26.9096 -11.5514,37.01331 19.2212,9.81555 22.7134,48.43207 3.4922,38.61593 -31.6602,17.37628 -13.6562,51.71677 18.004,34.34048 20.5315,-6.64944 50.3063,18.18737 29.7754,24.8368 -10.0982,34.67488 26.9147,46.22646 37.013,11.55157 9.8155,-19.2214 48.431,-22.71361 38.6162,-3.49222 17.3767,31.66055 51.7169,13.65638 34.3401,-18.00416 -6.6541,-20.53172 18.1824,-50.30683 24.836,-29.77511 34.6793,10.09837 46.2308,-26.91494 11.5515,-37.0133 -19.2212,-9.81021 -22.7134,-48.42673 -3.4922,-38.61652 31.6603,-17.38161 13.6563,-51.7221 -18.004,-34.34048 -20.5316,6.65418 -50.3064,-18.18263 -29.7754,-24.83621 10.0983,-34.67488 -26.9147,-46.22586 -5.7837,-1.8054 -9.9986,-2.57914 -13.1428,-2.58329 z m -25.9986,58.60336 c 18.1676,0 36.2232,7.4789 49.0695,20.32538 12.8464,12.84648 20.3252,30.90223 20.3252,49.07004 0,18.16781 -7.4788,36.22355 -20.3252,49.07003 -12.8463,12.84648 -30.9019,20.32539 -49.0695,20.32539 -18.1677,0 -36.2232,-7.47891 -49.0696,-20.32539 -12.8464,-12.84648 -20.3252,-30.90222 -20.3252,-49.07003 0,-18.16781 7.4788,-36.22356 20.3252,-49.07004 12.8464,-12.84648 30.9019,-20.32538 49.0696,-20.32538 z" />
      <text id="text_sharp" xml:space="preserve" style="font-style:normal;font-variant:normal;font-weight:normal;font-stretch:normal;font-size:133.333px;font-family:'Cascadia Code';-inkscape-font-specification:'Cascadia Code';fill:#16acc2;fill-opacity:1;stroke-width:0.9375" x="451.48392" y="580.43854">
         <tspan style="font-style:normal;font-variant:normal;font-weight:normal;font-stretch:normal;font-size:133.333px;font-family:'Cascadia Code';-inkscape-font-specification:'Cascadia Code';fill:#16acc2;fill-opacity:1;stroke-width:0.9375" x="451.48392" y="580.43854">#</tspan>
      </text>
   </g>
</svg>
